<svg width="50" height="50" viewBox="0 0 50 50" fill="none" xmlns="http://www.w3.org/2000/svg">
<circle cx="25" cy="25" r="24" fill="white" stroke="black" stroke-width="2"/>
<path d="M13.645 25.86C13.645 25.02 13.815 24.285 14.155 23.655C14.495 23.015 14.96 22.52 15.55 22.17C16.15 21.82 16.815 21.645 17.545 21.645C18.265 21.645 18.89 21.8 19.42 22.11C19.95 22.42 20.345 22.81 20.605 23.28V21.78H21.985V30H20.605V28.47C20.335 28.95 19.93 29.35 19.39 29.67C18.86 29.98 18.24 30.135 17.53 30.135C16.8 30.135 16.14 29.955 15.55 29.595C14.96 29.235 14.495 28.73 14.155 28.08C13.815 27.43 13.645 26.69 13.645 25.86ZM20.605 25.875C20.605 25.255 20.48 24.715 20.23 24.255C19.98 23.795 19.64 23.445 19.21 23.205C18.79 22.955 18.325 22.83 17.815 22.83C17.305 22.83 16.84 22.95 16.42 23.19C16 23.43 15.665 23.78 15.415 24.24C15.165 24.7 15.04 25.24 15.04 25.86C15.04 26.49 15.165 27.04 15.415 27.51C15.665 27.97 16 28.325 16.42 28.575C16.84 28.815 17.305 28.935 17.815 28.935C18.325 28.935 18.79 28.815 19.21 28.575C19.64 28.325 19.98 27.97 20.23 27.51C20.48 27.04 20.605 26.495 20.605 25.875ZM34.1767 21.63C34.8167 21.63 35.3867 21.765 35.8867 22.035C36.3867 22.295 36.7817 22.69 37.0717 23.22C37.3617 23.75 37.5067 24.395 37.5067 25.155V30H36.1567V25.35C36.1567 24.53 35.9517 23.905 35.5417 23.475C35.1417 23.035 34.5967 22.815 33.9067 22.815C33.1967 22.815 32.6317 23.045 32.2117 23.505C31.7917 23.955 31.5817 24.61 31.5817 25.47V30H30.2317V25.35C30.2317 24.53 30.0267 23.905 29.6167 23.475C29.2167 23.035 28.6717 22.815 27.9817 22.815C27.2717 22.815 26.7067 23.045 26.2867 23.505C25.8667 23.955 25.6567 24.61 25.6567 25.47V30H24.2917V21.78H25.6567V22.965C25.9267 22.535 26.2867 22.205 26.7367 21.975C27.1967 21.745 27.7017 21.63 28.2517 21.63C28.9417 21.63 29.5517 21.785 30.0817 22.095C30.6117 22.405 31.0067 22.86 31.2667 23.46C31.4967 22.88 31.8767 22.43 32.4067 22.11C32.9367 21.79 33.5267 21.63 34.1767 21.63Z" fill="black"/>
</svg>
