<svg width="25" height="20" viewBox="0 0 25 20" fill="none" xmlns="http://www.w3.org/2000/svg">
<path d="M22.6562 0H2.34375C1.04932 0 0 1.11927 0 2.5V17.5C0 18.8807 1.04932 20 2.34375 20H22.6562C23.9507 20 25 18.8807 25 17.5V2.5C25 1.11927 23.9507 0 22.6562 0ZM22.6562 2.5V4.62526C21.5614 5.57625 19.816 7.055 16.0846 10.1716C15.2623 10.8616 13.6334 12.5191 12.5 12.4998C11.3668 12.5193 9.73735 10.8613 8.91538 10.1716C5.18457 7.05547 3.43872 5.57641 2.34375 4.62526V2.5H22.6562ZM2.34375 17.5V7.83323C3.4626 8.7838 5.04927 10.1177 7.46768 12.1377C8.53491 13.0338 10.4039 15.012 12.5 14.9999C14.5858 15.012 16.4311 13.0625 17.5319 12.1381C19.9502 10.1182 21.5374 8.78391 22.6562 7.83328V17.5H2.34375Z" fill="#F7F9FF"/>
</svg>
