<svg width="611" height="419" viewBox="0 0 611 419" fill="none" xmlns="http://www.w3.org/2000/svg">
<g clip-path="url(#clip0)">
<path d="M490.671 389.704C486.705 404.461 472.808 413.682 472.808 413.682C472.808 413.682 465.341 398.979 469.307 384.223C473.273 369.466 487.17 360.244 487.17 360.244C487.17 360.244 494.637 374.948 490.671 389.704Z" fill="#3F3D56"/>
<path d="M484.655 386.582C473.548 397.305 472.305 413.674 472.305 413.674C472.305 413.674 489.071 412.658 500.179 401.935C511.287 391.212 512.53 374.844 512.53 374.844C512.53 374.844 495.763 375.86 484.655 386.582Z" fill="#0095FA"/>
<path d="M82.1815 333.883H103.1L154.651 314.173C154.651 314.173 191.259 299.574 188.27 327.313C185.282 355.052 180.052 392.282 180.052 392.282C180.052 392.282 163.616 384.982 154.651 387.172C145.685 389.362 151.662 342.643 151.662 342.643C151.662 342.643 78.446 376.952 71.722 372.572C64.9981 368.192 63.5039 337.533 63.5039 337.533L82.1815 333.883Z" fill="#2F2E41"/>
<path opacity="0.1" d="M82.1815 333.883H103.1L154.651 314.173C154.651 314.173 191.259 299.574 188.27 327.313C185.282 355.052 180.052 392.282 180.052 392.282C180.052 392.282 163.616 384.982 154.651 387.172C145.685 389.362 151.662 342.643 151.662 342.643C151.662 342.643 78.446 376.952 71.722 372.572C64.9981 368.192 63.5039 337.533 63.5039 337.533L82.1815 333.883Z" fill="black"/>
<path d="M115.139 269.873L140.456 305.413L199.477 353.592C199.477 353.592 254.016 366.002 246.544 374.762C239.073 383.522 193.5 366.002 193.5 366.002C193.5 366.002 125.514 317.823 123.272 314.173C121.031 310.523 96.3765 276.214 96.3765 276.214L115.139 269.873Z" fill="#A0616A"/>
<path opacity="0.1" d="M115.139 269.873L140.456 305.413L199.477 353.592C199.477 353.592 254.016 366.002 246.544 374.762C239.073 383.522 193.5 366.002 193.5 366.002C193.5 366.002 125.514 317.823 123.272 314.173C121.031 310.523 96.3765 276.214 96.3765 276.214L115.139 269.873Z" fill="black"/>
<path d="M100.112 241.175L116.548 272.564C116.548 272.564 112.813 287.894 106.836 289.354C100.859 290.814 75.4576 270.374 75.4576 270.374L100.112 241.175Z" fill="#D0CDE1"/>
<path opacity="0.1" d="M100.112 241.175L116.548 272.564C116.548 272.564 112.813 287.894 106.836 289.354C100.859 290.814 75.4576 270.374 75.4576 270.374L100.112 241.175Z" fill="black"/>
<path d="M300.628 317.631L305.483 337.199C305.537 337.417 305.529 337.646 305.459 337.86L283.435 405.108C283.347 405.374 283.169 405.603 282.93 405.757C282.691 405.91 282.405 405.979 282.12 405.952C281.836 405.924 281.569 405.802 281.365 405.606C281.161 405.41 281.033 405.151 281 404.873L277.954 378.676C277.933 378.502 277.952 378.326 278.007 378.159L298.223 317.54C298.307 317.287 298.474 317.068 298.697 316.916C298.92 316.764 299.188 316.687 299.46 316.697C299.732 316.708 299.994 316.804 300.204 316.973C300.415 317.141 300.564 317.372 300.628 317.631Z" fill="#2F2E41"/>
<path d="M298.842 319.283L303.324 336.073L283.899 397.392L279.417 378.412L298.842 319.283Z" fill="#F2F2F2"/>
<path d="M200.971 410.531C201.718 412.721 278.67 409.801 279.417 409.071C280.068 408.157 280.619 407.178 281.061 406.151C281.763 404.691 282.405 403.232 282.405 403.232L279.417 379.595L203.212 376.952C203.212 376.952 201.307 396.983 200.919 406.151C200.822 408.465 200.822 410.093 200.971 410.531Z" fill="#2F2E41"/>
<path opacity="0.1" d="M269.705 382.792L271.199 403.232H237.579V382.792H269.705Z" fill="black"/>
<path opacity="0.1" d="M226.373 389.362L226.573 389.323L225.626 398.122H206.948V389.362H226.373Z" fill="black"/>
<path opacity="0.1" d="M200.971 410.531C201.718 412.721 278.67 409.801 279.417 409.071C280.068 408.157 280.619 407.179 281.061 406.151H200.919C200.822 408.465 200.822 410.093 200.971 410.531Z" fill="black"/>
<path d="M111.319 230.955C129.886 230.955 144.938 216.248 144.938 198.106C144.938 179.963 129.886 165.256 111.319 165.256C92.7509 165.256 77.6989 179.963 77.6989 198.106C77.6989 216.248 92.7509 230.955 111.319 230.955Z" fill="#A0616A"/>
<path d="M109.077 227.305C109.077 227.305 97.8707 246.285 95.6294 256.505C93.3881 266.724 62.0097 236.065 62.0097 236.065L57.9006 225.48C57.9006 225.48 87.4112 211.975 85.1699 201.026C82.9286 190.076 109.077 227.305 109.077 227.305Z" fill="#A0616A"/>
<path d="M115.054 284.244L145.685 323.663L218.902 376.952C218.902 376.952 271.946 387.902 259.992 395.932C248.039 403.961 213.672 388.632 213.672 388.632C213.672 388.632 139.709 349.943 124.019 333.883C108.33 317.823 79.1931 290.814 79.1931 290.814L115.054 284.244Z" fill="#A0616A"/>
<path d="M73.9633 345.563L82.9286 359.432L136.434 342.985C148.174 339.376 161.047 340.704 171.46 347.114C180.799 352.863 186.776 361.987 173.328 375.492C146.432 402.501 128.502 387.902 128.502 387.902C128.502 387.902 38.1023 429.511 23.1602 409.071C8.21815 388.632 7.47107 378.412 7.47107 378.412C7.47107 378.412 64.9981 343.373 73.9633 345.563Z" fill="#2F2E41"/>
<path d="M186.029 393.742C186.029 393.742 209.936 409.071 181.546 416.371C153.156 423.671 132.237 413.451 132.237 413.451C132.237 413.451 107.583 413.451 107.583 401.042C107.583 388.632 115.801 387.172 115.801 387.172L141.203 390.822C141.203 390.822 171.834 382.792 186.029 393.742Z" fill="#D0CDE1"/>
<path d="M138.898 189.842C141.187 190.839 143.456 192.019 145.944 192.308C148.431 192.597 151.264 191.749 152.441 189.588C153.077 188.421 153.15 187.048 153.18 185.726C153.27 181.717 152.973 177.384 150.373 174.282C148.719 172.308 146.303 171.063 144.591 169.137C143.364 167.756 142.547 166.084 141.668 164.47C138.337 158.358 133.405 152.483 126.551 150.721C123.689 149.985 120.687 150.021 117.728 150.062L100.468 150.3C97.675 150.338 94.8388 150.383 92.165 151.173C86.6095 152.814 82.5646 157.379 78.86 161.744C76.0884 165.01 73.3095 168.31 71.2294 172.034C68.2471 177.469 66.7391 183.559 66.8492 189.725C66.8261 191.306 67.035 192.883 67.4696 194.406C67.9781 195.803 68.6081 197.155 69.3527 198.447C72.5895 204.659 74.5114 212.418 70.8661 218.41C77.1983 215.883 83.4635 212.569 87.6406 207.277C89.5092 204.909 90.9746 202.138 93.4649 200.4C95.9552 198.663 100.013 198.512 101.611 201.062C102.16 202.093 102.443 203.24 102.434 204.403C102.551 206.317 102.548 208.305 103.378 210.042C104.209 211.779 106.187 213.181 108.076 212.661C111.329 211.766 111.017 206.888 113.523 204.672C115.426 202.989 118.361 203.311 120.806 202.547C123.654 201.657 125.791 199.246 127.008 196.578C127.934 194.549 127.92 189.241 129.672 188.143C131.868 186.766 136.863 188.955 138.898 189.842Z" fill="#2F2E41"/>
<path d="M55.2318 222.017C56.7442 221.623 58.3366 221.627 59.847 222.029C64.6428 223.287 75.3937 226.617 77.6988 231.685C80.6873 238.255 91.1467 248.475 91.1467 248.475C91.1467 248.475 105.342 262.344 102.353 271.834C99.3649 281.324 88.1583 292.274 88.1583 292.274C88.1583 292.274 91.1467 337.533 76.2046 349.213C61.2625 360.892 55.2857 352.863 55.2857 363.812C55.2857 374.762 8.96526 409.071 0 387.902C0 387.902 4.48263 348.483 2.98842 334.613C1.51576 320.943 3.67165 235.656 55.2318 222.017Z" fill="#D0CDE1"/>
<path d="M79.1931 240.445C79.1931 240.445 124.766 273.294 116.548 287.164C116.548 287.164 88.9054 300.304 82.9286 299.574C76.9518 298.844 53.7915 273.294 47.8147 271.104C41.8379 268.914 38.8494 229.495 79.1931 240.445Z" fill="#D0CDE1"/>
<path d="M282.806 167.803C303.189 167.803 319.713 151.658 319.713 131.742C319.713 111.825 303.189 95.6796 282.806 95.6796C262.422 95.6796 245.898 111.825 245.898 131.742C245.898 151.658 262.422 167.803 282.806 167.803Z" fill="#F2F2F2"/>
<path d="M587.644 84.9069H380.82V42.6203H587.644V84.9069ZM381.731 84.0166H586.733V43.5106H381.731V84.0166Z" fill="#3F3D56"/>
<path d="M572.61 51.0776H366.697V92.4739H572.61V51.0776Z" fill="#0095FA"/>
<path d="M236.53 11.5731C238.291 11.5731 239.719 10.1781 239.719 8.45726C239.719 6.7364 238.291 5.34137 236.53 5.34137C234.769 5.34137 233.341 6.7364 233.341 8.45726C233.341 10.1781 234.769 11.5731 236.53 11.5731Z" fill="#0095FA"/>
<path d="M247.463 11.5731C249.224 11.5731 250.652 10.1781 250.652 8.45726C250.652 6.7364 249.224 5.34137 247.463 5.34137C245.702 5.34137 244.274 6.7364 244.274 8.45726C244.274 10.1781 245.702 11.5731 247.463 11.5731Z" fill="#0095FA"/>
<path d="M258.397 11.5731C260.158 11.5731 261.586 10.1781 261.586 8.45726C261.586 6.7364 260.158 5.34137 258.397 5.34137C256.635 5.34137 255.208 6.7364 255.208 8.45726C255.208 10.1781 256.635 11.5731 258.397 11.5731Z" fill="#0095FA"/>
<path d="M611 243.926H227.419V0H611V243.926ZM228.33 243.036H610.089V0.890243H228.33V243.036Z" fill="#3F3D56"/>
<path d="M610.544 13.5027H227.874V14.393H610.544V13.5027Z" fill="#3F3D56"/>
<path d="M237.441 10.6829C236.72 10.6829 236.016 10.4741 235.416 10.0828C234.817 9.6915 234.35 9.13535 234.074 8.48467C233.798 7.83399 233.726 7.11799 233.867 6.42723C234.007 5.73647 234.354 5.10197 234.864 4.60396C235.374 4.10595 236.023 3.7668 236.73 3.6294C237.437 3.492 238.17 3.56252 238.836 3.83204C239.502 4.10156 240.071 4.55798 240.471 5.14358C240.872 5.72918 241.085 6.41765 241.085 7.12194C241.084 8.06604 240.7 8.97115 240.017 9.63872C239.334 10.3063 238.407 10.6818 237.441 10.6829ZM237.441 4.45122C236.9 4.45122 236.372 4.60785 235.922 4.90132C235.473 5.19478 235.123 5.61189 234.916 6.0999C234.709 6.58792 234.655 7.12491 234.76 7.64298C234.866 8.16105 235.126 8.63693 235.508 9.01043C235.89 9.38394 236.378 9.6383 236.908 9.74135C237.438 9.84441 237.988 9.79151 238.487 9.58937C238.986 9.38723 239.413 9.04492 239.714 8.60572C240.014 8.16652 240.174 7.65016 240.174 7.12194C240.174 6.41388 239.885 5.73504 239.373 5.23436C238.86 4.73368 238.166 4.45204 237.441 4.45122Z" fill="#3F3D56"/>
<path d="M248.374 10.6829C247.654 10.6829 246.949 10.4741 246.35 10.0828C245.75 9.6915 245.283 9.13535 245.007 8.48467C244.732 7.83399 244.659 7.11799 244.8 6.42723C244.941 5.73647 245.288 5.10197 245.797 4.60396C246.307 4.10595 246.956 3.7668 247.663 3.6294C248.37 3.492 249.103 3.56252 249.769 3.83204C250.435 4.10156 251.004 4.55798 251.405 5.14358C251.805 5.72918 252.019 6.41765 252.019 7.12194C252.018 8.06604 251.633 8.97115 250.95 9.63872C250.267 10.3063 249.341 10.6818 248.374 10.6829ZM248.374 4.45122C247.834 4.45122 247.305 4.60785 246.856 4.90132C246.406 5.19478 246.056 5.61189 245.849 6.0999C245.642 6.58792 245.588 7.12491 245.694 7.64298C245.799 8.16105 246.059 8.63693 246.442 9.01043C246.824 9.38394 247.311 9.6383 247.841 9.74135C248.371 9.84441 248.921 9.79151 249.42 9.58937C249.92 9.38723 250.347 9.04492 250.647 8.60572C250.947 8.16652 251.108 7.65016 251.108 7.12194C251.107 6.41388 250.819 5.73504 250.306 5.23436C249.794 4.73368 249.099 4.45204 248.374 4.45122Z" fill="#3F3D56"/>
<path d="M259.308 10.6829C258.587 10.6829 257.882 10.4741 257.283 10.0828C256.684 9.6915 256.217 9.13536 255.941 8.48467C255.665 7.83399 255.593 7.118 255.733 6.42724C255.874 5.73648 256.221 5.10197 256.731 4.60396C257.241 4.10595 257.89 3.7668 258.597 3.6294C259.304 3.492 260.037 3.56252 260.703 3.83204C261.368 4.10156 261.938 4.55797 262.338 5.14357C262.739 5.72917 262.952 6.41764 262.952 7.12194C262.951 8.06603 262.567 8.97114 261.884 9.63872C261.2 10.3063 260.274 10.6818 259.308 10.6829ZM259.308 4.45122C258.767 4.45122 258.239 4.60785 257.789 4.90131C257.34 5.19478 256.989 5.61189 256.783 6.0999C256.576 6.58791 256.522 7.1249 256.627 7.64297C256.732 8.16104 256.993 8.63692 257.375 9.01043C257.757 9.38394 258.244 9.6383 258.775 9.74135C259.305 9.84441 259.854 9.79152 260.354 9.58938C260.853 9.38724 261.28 9.04492 261.581 8.60572C261.881 8.16652 262.041 7.65016 262.041 7.12194C262.04 6.41387 261.752 5.73505 261.24 5.23437C260.727 4.73369 260.033 4.45204 259.308 4.45122Z" fill="#3F3D56"/>
<path d="M348.473 13.9478H347.562V243.827H348.473V13.9478Z" fill="#3F3D56"/>
<path d="M458.037 126.971H391.07V135.873H458.037V126.971Z" fill="#F2F2F2"/>
<path d="M563.271 126.971H496.304V135.873H563.271V126.971Z" fill="#F2F2F2"/>
<path d="M462.137 131.867H394.259V122.074H462.137V131.867ZM395.17 130.977H461.226V122.965H395.17V130.977Z" fill="#3F3D56"/>
<path d="M458.037 195.965H391.07V204.867H458.037V195.965Z" fill="#F2F2F2"/>
<path d="M462.137 200.861H394.259V191.068H462.137V200.861ZM395.17 199.971H461.226V191.958H395.17V199.971Z" fill="#3F3D56"/>
<path d="M563.499 160.577H391.297V169.48H563.499V160.577Z" fill="#F2F2F2"/>
<path d="M567.599 166.364H394.486V156.571H567.599V166.364ZM395.397 165.474H566.688V157.462H395.397V165.474Z" fill="#3F3D56"/>
<path d="M567.371 131.867H499.493V122.074H567.371V131.867ZM500.404 130.977H566.46V122.965H500.404V130.977Z" fill="#3F3D56"/>
<path d="M289.052 158.372C281.64 158.372 274.394 156.224 268.231 152.201C262.069 148.177 257.265 142.459 254.429 135.768C251.592 129.077 250.85 121.715 252.296 114.612C253.742 107.509 257.311 100.984 262.552 95.8632C267.793 90.7422 274.471 87.2548 281.74 85.842C289.01 84.4291 296.545 85.1542 303.393 87.9257C310.241 90.6971 316.093 95.3904 320.211 101.412C324.329 107.434 326.527 114.513 326.527 121.755C326.516 131.463 322.564 140.77 315.538 147.635C308.513 154.5 298.987 158.361 289.052 158.372ZM289.052 86.248C281.864 86.248 274.838 88.3304 268.862 92.232C262.886 96.1336 258.228 101.679 255.478 108.167C252.727 114.655 252.008 121.795 253.41 128.682C254.812 135.57 258.273 141.897 263.355 146.863C268.438 151.828 274.913 155.21 281.962 156.58C289.011 157.95 296.318 157.247 302.958 154.559C309.599 151.872 315.274 147.321 319.267 141.482C323.26 135.643 325.391 128.778 325.391 121.755C325.381 112.341 321.548 103.316 314.736 96.6596C307.923 90.003 298.686 86.2587 289.052 86.248Z" fill="#3F3D56"/>
<path d="M585.449 413.025H424.758V414.134H585.449V413.025Z" fill="#3F3D56"/>
</g>
<defs>
<clipPath id="clip0">
<rect width="611" height="419" fill="white"/>
</clipPath>
</defs>
</svg>
