<svg width="100" height="100" viewBox="0 0 100 100" fill="none" xmlns="http://www.w3.org/2000/svg">
<g clip-path="url(#clip0)">
<path d="M50.0223 27.5391C35.8259 27.5391 24.375 37.5586 24.375 49.9805C24.375 62.4023 35.8259 72.4219 50.0223 72.4219C64.2187 72.4219 75.6696 62.4023 75.6696 49.9805C75.6696 37.5586 64.2187 27.5391 50.0223 27.5391ZM50.0223 64.5703C40.8482 64.5703 33.3482 58.0273 33.3482 49.9805C33.3482 41.9336 40.8259 35.3906 50.0223 35.3906C59.2187 35.3906 66.6964 41.9336 66.6964 49.9805C66.6964 58.0273 59.1964 64.5703 50.0223 64.5703ZM82.7009 26.6211C82.7009 29.5313 80.0223 31.8555 76.7187 31.8555C73.3928 31.8555 70.7366 29.5117 70.7366 26.6211C70.7366 23.7305 73.4152 21.3867 76.7187 21.3867C80.0223 21.3867 82.7009 23.7305 82.7009 26.6211ZM99.6875 31.9336C99.308 24.9219 97.4777 18.7109 91.6071 13.5938C85.7589 8.47656 78.6607 6.875 70.6473 6.52344C62.3884 6.11328 37.6339 6.11328 29.375 6.52344C21.3839 6.85547 14.2857 8.45703 8.41516 13.5742C2.54463 18.6914 0.736594 24.9023 0.334808 31.9141C-0.133942 39.1406 -0.133942 60.8008 0.334808 68.0273C0.714273 75.0391 2.54463 81.25 8.41516 86.3672C14.2857 91.4844 21.3616 93.0859 29.375 93.4375C37.6339 93.8477 62.3884 93.8477 70.6473 93.4375C78.6607 93.1055 85.7589 91.5039 91.6071 86.3672C97.4553 81.25 99.2857 75.0391 99.6875 68.0273C100.156 60.8008 100.156 39.1602 99.6875 31.9336ZM89.0178 75.7812C87.2768 79.6094 83.9062 82.5586 79.5089 84.1016C72.9241 86.3867 57.2991 85.8594 50.0223 85.8594C42.7455 85.8594 27.0982 86.3672 20.5357 84.1016C16.1607 82.5781 12.7902 79.6289 11.0268 75.7812C8.41516 70.0195 9.01784 56.3477 9.01784 49.9805C9.01784 43.6133 8.43749 29.9219 11.0268 24.1797C12.7678 20.3516 16.1384 17.4023 20.5357 15.8594C27.1205 13.5742 42.7455 14.1016 50.0223 14.1016C57.2991 14.1016 72.9464 13.5937 79.5089 15.8594C83.8839 17.3828 87.2544 20.332 89.0178 24.1797C91.6294 29.9414 91.0268 43.6133 91.0268 49.9805C91.0268 56.3477 91.6294 70.0391 89.0178 75.7812Z" fill="#3B3E4E"/>
</g>
<defs>
<clipPath id="clip0">
<rect width="100" height="100" fill="white"/>
</clipPath>
</defs>
</svg>
