<svg width="294" height="294" viewBox="0 0 294 294" fill="#ffffff" xmlns="http://www.w3.org/2000/svg">
<g clip-path="url(#clip0)" fill="#ffffff">
<path d="M41.88 178.8C39.4 178.16 37.56 177.6 36.36 177.12C35.16 176.64 33.96 175.96 32.76 175.08C29.96 174.2 27.6 173.08 25.68 171.72C23.84 170.36 21.96 168.6 20.04 166.44L15.6 161.16L14.76 157.56C15.4 157.48 16.28 157.04 17.4 156.24C18.6 155.44 19.32 155 19.56 154.92C20.84 153.88 22.68 152.64 25.08 151.2C27.48 149.68 30.72 147.8 34.8 145.56C38.56 143.8 41.12 142.44 42.48 141.48C43.92 140.44 44.8 139.8 45.12 139.56C46.88 138.2 48.08 137.56 48.72 137.64H49.2C49.68 137.64 50.16 137.88 50.64 138.36C51.04 138.84 51.56 139.24 52.2 139.56C52.84 139.8 53.32 140.04 53.64 140.28C53.96 140.44 54.12 140.72 54.12 141.12C54.04 141.28 53.8 141.64 53.4 142.2C53.08 142.76 52.68 143.2 52.2 143.52L48.84 145.32C45.16 147 40.44 149.56 34.68 153L30.24 155.52C27.92 156.8 26.28 157.84 25.32 158.64C24.44 159.44 24.08 160.36 24.24 161.4C24.96 163 27.2 164.8 30.96 166.8C34.8 168.8 39.76 170.72 45.84 172.56C48.4 173.2 50.56 174 52.32 174.96C54.08 175.92 54.96 176.84 54.96 177.72C54.96 178.2 54.6 178.64 53.88 179.04C53.72 179.12 53.16 179.28 52.2 179.52C51.32 179.76 50.16 179.88 48.72 179.88C47.28 179.88 45.8 179.72 44.28 179.4L41.88 178.8ZM61.8347 189.96C60.9547 189.48 60.3147 189.04 59.9147 188.64C59.5947 188.24 59.4347 187.72 59.4347 187.08C59.4347 186.28 59.7547 185.16 60.3947 183.72C61.1147 182.2 62.3147 179.84 63.9947 176.64C64.4747 175.6 65.3947 173.76 66.7547 171.12C71.3947 162.24 73.7147 157.4 73.7147 156.6C73.6347 156.44 73.5947 156.2 73.5947 155.88C73.5947 155.08 74.2347 154.36 75.5147 153.72C77.3547 151.88 78.8747 149.92 80.0747 147.84C80.8747 146.08 81.9547 144 83.3147 141.6C84.6747 139.12 86.3547 136.2 88.3547 132.84C89.3147 131.16 90.7547 128.72 92.6747 125.52C95.6347 120.24 99.4347 114.48 104.075 108.24C105.915 105.76 107.435 104.56 108.635 104.64C110.155 104.64 111.835 105.36 113.675 106.8C115.595 108.16 116.915 109.72 117.635 111.48C117.955 112.04 118.115 113.24 118.115 115.08C118.115 117.56 117.835 121.76 117.275 127.68C117.115 128.72 116.955 130.36 116.795 132.6C116.555 136.2 116.195 140.04 115.715 144.12C114.835 153.08 114.195 160.08 113.795 165.12C113.395 170.16 113.195 174.88 113.195 179.28C113.195 181.52 113.235 183.16 113.315 184.2V185.04L113.195 187.8C112.715 188.28 111.995 188.52 111.035 188.52C109.915 188.52 108.835 188.24 107.795 187.68C106.755 187.2 106.155 186.6 105.995 185.88C105.915 185.8 105.795 185.72 105.635 185.64C105.475 185.56 105.395 185.2 105.395 184.56L105.515 181.92L105.875 175.2L106.475 155.76L104.915 155.88C103.315 155.88 99.7547 156.2 94.2347 156.84C88.7147 157.48 85.2747 158 83.9147 158.4C83.1947 158.4 82.3147 158.88 81.2747 159.84C80.2347 160.8 79.3147 162.04 78.5147 163.56C78.2747 164.36 77.7147 165.52 76.8347 167.04C75.9547 168.48 75.5147 169.32 75.5147 169.56C75.0347 169.88 74.5947 170.32 74.1947 170.88C73.8747 171.36 73.6747 171.68 73.5947 171.84C73.5947 172.72 72.7547 174.96 71.0747 178.56C69.4747 182.16 67.8747 185.16 66.2747 187.56L63.7547 191.4L61.8347 189.96ZM86.6747 151.32C87.1547 151.24 88.1947 151.08 89.7947 150.84C91.3947 150.52 92.8347 150.32 94.1147 150.24C99.8747 148.88 103.395 148.2 104.675 148.2C105.235 148.2 105.755 148.32 106.235 148.56C106.475 148.88 106.715 149.12 106.955 149.28C107.275 149.36 107.475 149.4 107.555 149.4C107.715 148.92 108.195 144.6 108.995 136.44C109.875 128.2 110.355 122.72 110.435 120L110.795 114C110.315 114 109.275 114.92 107.675 116.76C106.075 118.6 104.275 121 102.275 123.96C100.355 126.84 98.6347 129.8 97.1147 132.84C96.3147 134.28 95.5147 135.64 94.7147 136.92C93.9947 138.12 93.4747 138.72 93.1547 138.72C92.5947 139.28 91.2747 141.44 89.1947 145.2C87.1147 148.96 86.2747 151 86.6747 151.32ZM105.395 98.4C104.275 99.52 103.195 100.08 102.155 100.08C101.515 100.08 100.995 99.88 100.595 99.48C100.275 99 100.115 98.44 100.115 97.8C100.115 96.92 100.435 96.04 101.075 95.16C101.715 94.36 103.355 92.8 105.995 90.48C108.715 88.16 110.835 86.6 112.355 85.8C112.995 85.24 113.635 84.96 114.275 84.96C114.995 84.96 115.595 85.32 116.075 86.04C117.355 87.08 119.035 88.68 121.115 90.84C123.195 92.92 124.675 94.44 125.555 95.4C125.955 95.88 126.155 96.56 126.155 97.44C126.155 98.16 125.955 98.84 125.555 99.48C125.155 100.04 124.635 100.32 123.995 100.32C122.875 100.32 121.715 99.56 120.515 98.04C118.915 96.12 116.755 94 114.035 91.68C112.355 92.64 110.555 93.96 108.635 95.64C106.795 97.24 105.715 98.16 105.395 98.4ZM193.109 191.76C193.109 192.08 192.829 192.24 192.269 192.24C191.869 192.24 191.389 192.08 190.829 191.76C190.269 191.44 189.829 191 189.509 190.44C188.869 189.08 188.549 187.4 188.549 185.4L188.669 180.48C191.149 165.92 194.069 151.28 197.429 136.56C198.549 132.64 199.469 128.92 200.189 125.4C200.989 121.88 201.469 119.64 201.629 118.68C201.629 118.44 201.389 118.56 200.909 119.04C200.509 119.44 200.109 119.96 199.709 120.6C199.309 121.16 199.149 121.56 199.229 121.8L196.229 126.24C195.749 126.72 194.629 128.56 192.869 131.76C191.669 134.32 190.589 136.32 189.629 137.76L186.269 144.12C183.789 148.68 182.269 151.44 181.709 152.4C180.909 153.6 179.749 155.68 178.229 158.64C177.429 160.56 175.989 162.84 173.909 165.48C173.269 166.36 172.629 167.32 171.989 168.36C171.429 169.4 171.069 170.08 170.909 170.4C170.909 170.8 170.069 172.16 168.389 174.48C166.789 176.8 165.309 178.72 163.949 180.24C162.109 182.16 160.589 183.56 159.389 184.44C158.189 185.24 157.069 185.64 156.029 185.64C154.669 185.64 153.189 184.88 151.589 183.36C150.549 182.24 149.789 180.92 149.309 179.4C148.909 177.88 148.709 176 148.709 173.76C148.709 171.76 148.989 168.4 149.549 163.68C149.629 163.28 150.389 159 151.829 150.84C153.349 142.6 154.269 138.08 154.589 137.28C154.669 136.8 154.709 136.24 154.709 135.6C154.709 134.88 154.589 134.52 154.349 134.52C154.109 134.52 153.669 135.04 153.029 136.08C152.789 136.4 151.349 138.64 148.709 142.8C146.149 146.96 143.389 152.28 140.429 158.76C135.789 167.32 132.349 173.76 130.109 178.08C127.869 182.32 126.229 185.36 125.189 187.2C123.829 189.84 123.029 191.28 122.789 191.52C121.589 191.52 120.069 190.52 118.229 188.52C117.989 188.04 117.869 187.6 117.869 187.2C117.869 186.64 118.109 185.72 118.589 184.44C119.149 183.16 119.909 181.48 120.869 179.4C123.349 174.52 124.989 171.76 125.789 171.12C126.749 169.84 127.309 168.44 127.469 166.92C128.509 165.48 129.989 162.88 131.909 159.12C133.109 157.2 134.509 154.8 136.109 151.92C137.789 149.04 139.269 146.28 140.549 143.64L143.909 137.76C147.029 132.32 149.509 128.12 151.349 125.16C153.269 122.2 154.709 120.24 155.669 119.28C156.949 117.76 157.589 116.56 157.589 115.68C157.589 114 157.909 112.48 158.549 111.12C159.269 109.68 159.989 109.04 160.709 109.2C161.669 109.2 162.429 109.32 162.989 109.56C163.629 109.72 164.269 110.2 164.909 111C165.069 111.24 165.309 111.64 165.629 112.2C166.029 112.68 166.309 113.24 166.469 113.88C166.709 114.44 166.829 115.16 166.829 116.04C166.829 117 166.709 118.2 166.469 119.64C166.389 120.68 166.069 123.04 165.509 126.72C165.189 128.48 165.029 129.56 165.029 129.96C162.949 136.28 161.069 144.2 159.389 153.72C157.789 163.16 156.989 169.8 156.989 173.64C156.989 174.52 157.069 175.12 157.229 175.44C157.789 175.84 158.269 175.88 158.669 175.56C159.149 175.24 159.829 174.2 160.709 172.44C161.749 170.52 163.509 168.04 165.989 165C166.149 164.76 167.709 162.12 170.669 157.08C178.029 145 185.189 132.88 192.149 120.72L195.269 115.8C196.469 113.88 197.629 112.12 198.749 110.52C199.869 108.84 200.749 107.76 201.389 107.28C202.189 106.64 202.949 106.32 203.669 106.32C205.189 106.32 206.549 107.24 207.749 109.08C208.949 110.92 209.549 113.24 209.549 116.04C209.549 118.2 209.109 121.52 208.229 126C207.349 130.4 206.189 134.84 204.749 139.32C204.269 141.56 203.589 144.36 202.709 147.72C201.829 151.08 200.909 154.12 199.949 156.84C199.789 158.2 199.469 159.92 198.989 162C198.909 162.4 198.669 163.64 198.269 165.72C197.949 167.72 197.869 169.08 198.029 169.8C196.829 171.96 196.229 176.28 196.229 182.76L195.869 185.52C195.709 187.76 195.549 189.28 195.389 190.08C195.229 190.88 194.989 191.24 194.669 191.16C194.509 191.08 194.269 191.04 193.949 191.04C193.389 191.04 193.109 191.28 193.109 191.76ZM208.196 197.28C206.836 197.36 205.796 196.96 205.076 196.08C204.356 195.2 203.996 193.96 203.996 192.36C203.996 189.88 204.836 186.84 206.516 183.24C206.756 182.76 207.156 182.04 207.716 181.08C208.276 180.04 208.636 179.2 208.796 178.56C209.436 177.12 213.036 170.44 219.596 158.52C226.156 146.6 229.676 140.32 230.156 139.68C230.476 139.76 230.796 139.56 231.116 139.08C231.436 138.6 231.676 138.04 231.836 137.4C231.996 136.68 232.276 136 232.676 135.36C233.156 134.64 233.556 134.2 233.876 134.04C234.036 133.72 234.236 133.28 234.476 132.72C234.796 132.16 234.996 131.76 235.076 131.52C235.076 131.36 235.196 131.08 235.436 130.68C235.756 130.28 235.956 129.96 236.036 129.72C237.796 127.56 241.116 122.64 245.996 114.96C250.876 107.2 253.436 102.84 253.676 101.88C253.916 100.68 254.716 100.2 256.076 100.44C256.476 100.12 257.116 100.04 257.996 100.2C258.076 100.28 258.196 100.52 258.356 100.92C258.596 101.32 258.956 101.84 259.436 102.48C259.916 103.04 260.156 103.8 260.156 104.76C260.156 105.4 260.036 106.16 259.796 107.04C259.556 108.24 259.196 109.24 258.716 110.04C258.236 110.76 257.076 112.32 255.236 114.72L251.996 119.04L249.356 122.64C248.236 124 247.676 124.8 247.676 125.04C247.516 125.36 247.236 125.84 246.836 126.48C246.436 127.04 245.996 127.76 245.516 128.64C244.636 129.76 243.156 131.76 241.076 134.64C239.076 137.52 238.036 139.12 237.956 139.44C237.876 139.6 237.756 139.88 237.596 140.28C237.516 140.6 237.276 140.88 236.876 141.12C236.636 141.04 236.436 141.2 236.276 141.6C236.116 141.92 236.036 142.16 236.036 142.32C236.036 142.96 234.996 144.92 232.916 148.2C229.316 154.76 224.756 163.32 219.236 173.88C213.716 184.44 210.756 190.64 210.356 192.48C209.956 194.4 209.636 195.64 209.396 196.2C209.156 196.76 208.756 197.12 208.196 197.28ZM261.846 180.84C261.366 180.84 261.006 180.72 260.766 180.48C260.526 180.16 260.366 179.96 260.286 179.88C259.886 179.4 259.366 179 258.726 178.68C258.086 178.36 257.606 178.08 257.286 177.84C256.966 177.6 256.886 177.32 257.046 177C257.126 176.84 257.326 176.52 257.646 176.04C257.966 175.48 258.366 175 258.846 174.6L262.326 173.16C266.726 171.4 271.686 169.16 277.206 166.44C278.326 165.8 279.806 165.08 281.646 164.28C284.046 163.16 285.726 162.24 286.686 161.52C287.726 160.72 288.206 159.76 288.126 158.64C287.486 156.96 285.326 155.04 281.646 152.88C277.966 150.64 273.166 148.4 267.246 146.16C264.766 145.28 262.686 144.32 261.006 143.28C259.406 142.24 258.606 141.32 258.606 140.52C258.606 139.88 259.006 139.4 259.806 139.08C259.966 139.08 260.366 139 261.006 138.84C261.726 138.68 262.606 138.6 263.646 138.6C265.406 138.6 267.366 138.92 269.526 139.56L272.766 140.64C274.926 141.36 276.486 141.96 277.446 142.44C278.486 142.84 279.566 143.52 280.686 144.48C283.326 145.6 285.526 146.92 287.286 148.44C289.046 149.88 290.846 151.8 292.686 154.2L296.766 159.72L297.366 163.32C296.726 163.4 295.766 163.8 294.486 164.52C293.206 165.16 292.486 165.52 292.326 165.6C291.206 166.4 289.526 167.4 287.286 168.6C285.046 169.72 282.206 171.08 278.766 172.68L276.606 173.76C273.246 175.04 270.766 176.2 269.166 177.24C267.566 178.2 266.446 178.84 265.806 179.16C265.166 179.64 264.446 180.08 263.646 180.48C262.926 180.8 262.406 180.92 262.086 180.84H261.846Z" fill="#ffffff"/>
</g>
<defs>
<clipPath id="clip0">
<rect width="294" height="294" fill="white"/>
</clipPath>
</defs>
</svg>
