<svg width="25" height="25" viewBox="0 0 25 25" fill="none" xmlns="http://www.w3.org/2000/svg">
<g clip-path="url(#clip0)">
<path d="M12.5 1.5625C5.59568 1.5625 -2.47462e-05 6.1084 -2.47462e-05 11.7188C-2.47462e-05 14.043 0.971655 16.1719 2.58298 17.8857C1.85544 19.8096 0.341772 21.4404 0.317358 21.46C-0.00490756 21.8018 -0.0927982 22.2998 0.0927487 22.7295C0.278296 23.1592 0.7031 23.4375 1.17185 23.4375C4.17478 23.4375 6.54294 22.1826 7.96384 21.1768C9.37498 21.6211 10.8984 21.875 12.5 21.875C19.4043 21.875 25 17.3291 25 11.7188C25 6.1084 19.4043 1.5625 12.5 1.5625ZM12.5 19.5312C11.1963 19.5312 9.9072 19.3311 8.67185 18.9404L7.56345 18.5889L6.6113 19.2627C5.91306 19.7559 4.95603 20.3076 3.80369 20.6787C4.16013 20.0879 4.50681 19.4238 4.77537 18.7158L5.29294 17.3438L4.28708 16.2793C3.4033 15.3369 2.34373 13.7793 2.34373 11.7188C2.34373 7.41211 6.89939 3.90625 12.5 3.90625C18.1006 3.90625 22.6562 7.41211 22.6562 11.7188C22.6562 16.0254 18.1006 19.5312 12.5 19.5312Z" fill="#F7F9FF"/>
</g>
<defs>
<clipPath id="clip0">
<rect width="25" height="25" fill="white"/>
</clipPath>
</defs>
</svg>
