<svg width="25" height="30" viewBox="0 0 25 30" fill="none" xmlns="http://www.w3.org/2000/svg">
<path d="M17.5 17.8125C15.8984 17.8125 15.1283 18.75 12.5 18.75C9.87165 18.75 9.10714 17.8125 7.5 17.8125C3.35937 17.8125 0 21.3398 0 25.6875V27.1875C0 28.7402 1.19978 30 2.67857 30H22.3214C23.8002 30 25 28.7402 25 27.1875V25.6875C25 21.3398 21.6406 17.8125 17.5 17.8125ZM22.3214 27.1875H2.67857V25.6875C2.67857 22.8984 4.84375 20.625 7.5 20.625C8.31473 20.625 9.63728 21.5625 12.5 21.5625C15.385 21.5625 16.6797 20.625 17.5 20.625C20.1562 20.625 22.3214 22.8984 22.3214 25.6875V27.1875ZM12.5 16.875C16.9364 16.875 20.5357 13.0957 20.5357 8.4375C20.5357 3.7793 16.9364 0 12.5 0C8.06362 0 4.46429 3.7793 4.46429 8.4375C4.46429 13.0957 8.06362 16.875 12.5 16.875ZM12.5 2.8125C15.452 2.8125 17.8571 5.33789 17.8571 8.4375C17.8571 11.5371 15.452 14.0625 12.5 14.0625C9.54799 14.0625 7.14286 11.5371 7.14286 8.4375C7.14286 5.33789 9.54799 2.8125 12.5 2.8125Z" fill="#F7F9FF"/>
</svg>
