<svg width="663" height="386" viewBox="0 0 663 386" fill="none" xmlns="http://www.w3.org/2000/svg">
<g clip-path="url(#clip0)">
<path opacity="0.1" d="M663 247.756C663.008 258.242 661.672 268.679 659.03 278.77C656.477 288.498 652.72 297.811 647.862 306.458C647.862 337.784 628.262 364.859 599.812 377.74C587.924 383.068 575.171 385.789 562.298 385.744H125.86C102.533 385.744 80.9161 378.953 63.1878 367.385C58.1141 364.09 53.3011 360.348 48.7977 356.199C29.0932 337.928 16.8763 312.679 16.8763 284.792C5.81754 266.419 -0.0463496 244.971 -1.74651e-05 223.064C-1.74651e-05 177.193 25.1465 137.75 61.171 120.336C65.9547 118.025 70.8976 116.118 75.9552 114.633C77.7441 114.108 79.5523 113.637 81.3798 113.22C86.2515 112.101 91.1928 111.369 96.164 111.032C97.9605 110.911 99.7668 110.842 101.583 110.825H102.58C104.585 110.825 106.573 110.9 108.549 111.025L109.198 109.837C109.994 108.403 110.809 106.984 111.644 105.579C113.15 103.02 114.731 100.498 116.384 98.0132C118.115 95.3912 119.921 92.8108 121.803 90.2722L122.284 89.6469C123.35 88.2129 124.44 86.7956 125.553 85.395C129.03 81.0222 132.7 76.7807 136.564 72.6705C178.355 28.4754 243.826 0.0250244 317.429 0.0250244C374.699 0.0250244 427.05 17.2516 467.148 45.7145C482.339 36.4394 499.5 31.5726 516.955 31.5893C573.599 31.5893 619.534 81.8434 619.534 143.834C619.526 147.756 619.332 151.676 618.955 155.577C632.609 166.005 643.738 179.824 651.404 195.867C659.07 211.91 663.047 229.707 663 247.756Z" fill="#0095FA"/>
<path opacity="0.2" d="M136.576 72.6454V85.37H125.564C129.015 81.0013 132.685 76.7598 136.576 72.6454Z" fill="#0095FA"/>
<path opacity="0.2" d="M156.784 69.4189H142V85.3699H156.784V69.4189Z" fill="#0095FA"/>
<path opacity="0.2" d="M176.987 69.4189H162.203V85.3699H176.987V69.4189Z" fill="#0095FA"/>
<path opacity="0.2" d="M197.196 69.4189H182.412V85.3699H197.196V69.4189Z" fill="#0095FA"/>
<path opacity="0.2" d="M217.399 69.4189H202.615V85.3699H217.399V69.4189Z" fill="#0095FA"/>
<path opacity="0.2" d="M237.608 69.4189H222.824V85.3699H237.608V69.4189Z" fill="#0095FA"/>
<path d="M257.817 69.4189H243.032V85.3699H257.817V69.4189Z" fill="#0095FA"/>
<path opacity="0.2" d="M278.02 69.4189H263.235V85.3699H278.02V69.4189Z" fill="#0095FA"/>
<path opacity="0.2" d="M298.228 69.4189H283.444V85.3699H298.228V69.4189Z" fill="#0095FA"/>
<path opacity="0.2" d="M318.431 69.4189H303.647V85.3699H318.431V69.4189Z" fill="#0095FA"/>
<path d="M338.64 69.4189H323.856V85.3699H338.64V69.4189Z" fill="#0095FA"/>
<path opacity="0.2" d="M358.849 69.4189H344.065V85.3699H358.849V69.4189Z" fill="#0095FA"/>
<path opacity="0.2" d="M379.052 69.4189H364.267V85.3699H379.052V69.4189Z" fill="#0095FA"/>
<path opacity="0.2" d="M399.26 69.4189H384.476V85.3699H399.26V69.4189Z" fill="#0095FA"/>
<path opacity="0.2" d="M419.469 69.4189H404.685V85.3699H419.469V69.4189Z" fill="#0095FA"/>
<path opacity="0.2" d="M439.672 69.4189H424.888V85.3699H439.672V69.4189Z" fill="#0095FA"/>
<path opacity="0.2" d="M459.881 69.4189H445.097V85.3699H459.881V69.4189Z" fill="#0095FA"/>
<path d="M480.084 69.4189H465.3V85.3699H480.084V69.4189Z" fill="#0095FA"/>
<path d="M500.293 69.4189H485.508V85.3699H500.293V69.4189Z" fill="#0095FA"/>
<path opacity="0.2" d="M520.501 69.4189H505.717V85.3699H520.501V69.4189Z" fill="#0095FA"/>
<path opacity="0.2" d="M540.704 69.4189H525.92V85.3699H540.704V69.4189Z" fill="#0095FA"/>
<path d="M560.913 69.4189H546.129V85.3699H560.913V69.4189Z" fill="#0095FA"/>
<path d="M581.116 69.4189H566.332V85.3699H581.116V69.4189Z" fill="#0095FA"/>
<path d="M116.373 98.007V105.573H111.632C113.139 102.997 114.719 100.475 116.373 98.007Z" fill="#0095FA"/>
<path opacity="0.2" d="M136.576 89.6219H121.791V105.573H136.576V89.6219Z" fill="#0095FA"/>
<path d="M156.784 89.6219H142V105.573H156.784V89.6219Z" fill="#0095FA"/>
<path opacity="0.2" d="M176.987 89.6219H162.203V105.573H176.987V89.6219Z" fill="#0095FA"/>
<path opacity="0.7" d="M197.196 89.6219H182.412V105.573H197.196V89.6219Z" fill="#0095FA"/>
<path opacity="0.2" d="M217.399 89.6219H202.615V105.573H217.399V89.6219Z" fill="#0095FA"/>
<path opacity="0.4" d="M237.608 89.6219H222.824V105.573H237.608V89.6219Z" fill="#0095FA"/>
<path d="M257.817 89.6219H243.032V105.573H257.817V89.6219Z" fill="#0095FA"/>
<path opacity="0.4" d="M278.02 89.6219H263.235V105.573H278.02V89.6219Z" fill="#0095FA"/>
<path opacity="0.2" d="M298.228 89.6219H283.444V105.573H298.228V89.6219Z" fill="#0095FA"/>
<path opacity="0.4" d="M318.431 89.6219H303.647V105.573H318.431V89.6219Z" fill="#0095FA"/>
<path d="M338.64 89.6219H323.856V105.573H338.64V89.6219Z" fill="#0095FA"/>
<path opacity="0.4" d="M358.849 89.6219H344.065V105.573H358.849V89.6219Z" fill="#0095FA"/>
<path opacity="0.4" d="M379.052 89.6219H364.267V105.573H379.052V89.6219Z" fill="#0095FA"/>
<path opacity="0.2" d="M399.26 89.6219H384.476V105.573H399.26V89.6219Z" fill="#0095FA"/>
<path opacity="0.4" d="M419.469 89.6219H404.685V105.573H419.469V89.6219Z" fill="#0095FA"/>
<path opacity="0.4" d="M439.672 89.6219H424.888V105.573H439.672V89.6219Z" fill="#0095FA"/>
<path opacity="0.2" d="M459.881 89.6219H445.097V105.573H459.881V89.6219Z" fill="#0095FA"/>
<path opacity="0.2" d="M480.084 89.6219H465.3V105.573H480.084V89.6219Z" fill="#0095FA"/>
<path opacity="0.4" d="M500.293 89.6219H485.508V105.573H500.293V89.6219Z" fill="#0095FA"/>
<path opacity="0.2" d="M520.501 89.6219H505.717V105.573H520.501V89.6219Z" fill="#0095FA"/>
<path d="M540.704 89.6219H525.92V105.573H540.704V89.6219Z" fill="#0095FA"/>
<path d="M560.913 89.6219H546.129V105.573H560.913V89.6219Z" fill="#0095FA"/>
<path d="M581.116 89.6219H566.332V105.573H581.116V89.6219Z" fill="#0095FA"/>
<path opacity="0.2" d="M75.9552 114.633V125.782H61.171V120.336C65.9547 118.025 70.8976 116.118 75.9552 114.633Z" fill="#0095FA"/>
<path opacity="0.2" d="M96.164 111.032V125.782H81.3798V113.22L96.164 111.032Z" fill="#0095FA"/>
<path d="M116.367 109.831H101.583V125.782H116.367V109.831Z" fill="#0095FA"/>
<path opacity="0.7" d="M136.576 109.831H121.791V125.782H136.576V109.831Z" fill="#0095FA"/>
<path d="M156.784 109.831H142V125.782H156.784V109.831Z" fill="#0095FA"/>
<path opacity="0.7" d="M176.987 109.831H162.203V125.782H176.987V109.831Z" fill="#0095FA"/>
<path opacity="0.7" d="M197.196 109.831H182.412V125.782H197.196V109.831Z" fill="#0095FA"/>
<path opacity="0.2" d="M217.399 109.831H202.615V125.782H217.399V109.831Z" fill="#0095FA"/>
<path opacity="0.4" d="M237.608 109.831H222.824V125.782H237.608V109.831Z" fill="#0095FA"/>
<path opacity="0.4" d="M257.817 109.831H243.032V125.782H257.817V109.831Z" fill="#0095FA"/>
<path d="M278.02 109.831H263.235V125.782H278.02V109.831Z" fill="#0095FA"/>
<path opacity="0.2" d="M298.228 109.831H283.444V125.782H298.228V109.831Z" fill="#0095FA"/>
<path opacity="0.4" d="M318.431 109.831H303.647V125.782H318.431V109.831Z" fill="#0095FA"/>
<path d="M338.64 109.831H323.856V125.782H338.64V109.831Z" fill="#0095FA"/>
<path opacity="0.2" d="M358.849 109.831H344.065V125.782H358.849V109.831Z" fill="#0095FA"/>
<path opacity="0.4" d="M379.052 109.831H364.267V125.782H379.052V109.831Z" fill="#0095FA"/>
<path opacity="0.2" d="M399.26 109.831H384.476V125.782H399.26V109.831Z" fill="#0095FA"/>
<path d="M419.469 109.831H404.685V125.782H419.469V109.831Z" fill="#0095FA"/>
<path opacity="0.2" d="M439.672 109.831H424.888V125.782H439.672V109.831Z" fill="#0095FA"/>
<path opacity="0.7" d="M459.881 109.831H445.097V125.782H459.881V109.831Z" fill="#0095FA"/>
<path opacity="0.7" d="M480.084 109.831H465.3V125.782H480.084V109.831Z" fill="#0095FA"/>
<path opacity="0.4" d="M500.293 109.831H485.508V125.782H500.293V109.831Z" fill="#0095FA"/>
<path opacity="0.2" d="M520.501 109.831H505.717V125.782H520.501V109.831Z" fill="#0095FA"/>
<path d="M540.704 109.831H525.92V125.782H540.704V109.831Z" fill="#0095FA"/>
<path d="M560.913 109.831H546.129V125.782H560.913V109.831Z" fill="#0095FA"/>
<path d="M581.116 109.831H566.332V125.782H581.116V109.831Z" fill="#0095FA"/>
<path opacity="0.2" d="M75.9552 130.034H61.171V145.985H75.9552V130.034Z" fill="#0095FA"/>
<path opacity="0.2" d="M96.164 130.034H81.3798V145.985H96.164V130.034Z" fill="#0095FA"/>
<path opacity="0.2" d="M116.367 130.034H101.583V145.985H116.367V130.034Z" fill="#0095FA"/>
<path opacity="0.2" d="M136.576 130.034H121.791V145.985H136.576V130.034Z" fill="#0095FA"/>
<path d="M156.784 130.034H142V145.985H156.784V130.034Z" fill="#0095FA"/>
<path opacity="0.7" d="M176.987 130.034H162.203V145.985H176.987V130.034Z" fill="#0095FA"/>
<path opacity="0.7" d="M197.196 130.034H182.412V145.985H197.196V130.034Z" fill="#0095FA"/>
<path opacity="0.2" d="M217.399 130.034H202.615V145.985H217.399V130.034Z" fill="#0095FA"/>
<path opacity="0.2" d="M237.608 130.034H222.824V145.985H237.608V130.034Z" fill="#0095FA"/>
<path opacity="0.4" d="M257.817 130.034H243.032V145.985H257.817V130.034Z" fill="#0095FA"/>
<path opacity="0.4" d="M278.02 130.034H263.235V145.985H278.02V130.034Z" fill="#0095FA"/>
<path d="M298.228 130.034H283.444V145.985H298.228V130.034Z" fill="#0095FA"/>
<path opacity="0.2" d="M318.431 130.034H303.647V145.985H318.431V130.034Z" fill="#0095FA"/>
<path opacity="0.4" d="M338.64 130.034H323.856V145.985H338.64V130.034Z" fill="#0095FA"/>
<path opacity="0.4" d="M358.849 130.034H344.065V145.985H358.849V130.034Z" fill="#0095FA"/>
<path opacity="0.4" d="M379.052 130.034H364.267V145.985H379.052V130.034Z" fill="#0095FA"/>
<path opacity="0.4" d="M399.26 130.034H384.476V145.985H399.26V130.034Z" fill="#0095FA"/>
<path opacity="0.2" d="M419.469 130.034H404.685V145.985H419.469V130.034Z" fill="#0095FA"/>
<path opacity="0.2" d="M439.672 130.034H424.888V145.985H439.672V130.034Z" fill="#0095FA"/>
<path opacity="0.2" d="M459.881 130.034H445.097V145.985H459.881V130.034Z" fill="#0095FA"/>
<path opacity="0.2" d="M480.084 130.034H465.3V145.985H480.084V130.034Z" fill="#0095FA"/>
<path opacity="0.7" d="M500.293 130.034H485.508V145.985H500.293V130.034Z" fill="#0095FA"/>
<path opacity="0.7" d="M520.501 130.034H505.717V145.985H520.501V130.034Z" fill="#0095FA"/>
<path opacity="0.4" d="M540.704 130.034H525.92V145.985H540.704V130.034Z" fill="#0095FA"/>
<path opacity="0.2" d="M560.913 130.034H546.129V145.985H560.913V130.034Z" fill="#0095FA"/>
<path d="M581.116 130.034H566.332V145.985H581.116V130.034Z" fill="#0095FA"/>
<path opacity="0.2" d="M75.9552 150.243H61.171V166.194H75.9552V150.243Z" fill="#0095FA"/>
<path opacity="0.2" d="M96.164 150.243H81.3798V166.194H96.164V150.243Z" fill="#0095FA"/>
<path opacity="0.4" d="M116.367 150.243H101.583V166.194H116.367V150.243Z" fill="#0095FA"/>
<path opacity="0.2" d="M136.576 150.243H121.791V166.194H136.576V150.243Z" fill="#0095FA"/>
<path opacity="0.2" d="M156.784 150.243H142V166.194H156.784V150.243Z" fill="#0095FA"/>
<path opacity="0.7" d="M176.987 150.243H162.203V166.194H176.987V150.243Z" fill="#0095FA"/>
<path opacity="0.7" d="M197.196 150.243H182.412V166.194H197.196V150.243Z" fill="#0095FA"/>
<path opacity="0.2" d="M217.399 150.243H202.615V166.194H217.399V150.243Z" fill="#0095FA"/>
<path opacity="0.2" d="M237.608 150.243H222.824V166.194H237.608V150.243Z" fill="#0095FA"/>
<path opacity="0.4" d="M257.817 150.243H243.032V166.194H257.817V150.243Z" fill="#0095FA"/>
<path d="M278.02 150.243H263.235V166.194H278.02V150.243Z" fill="#0095FA"/>
<path opacity="0.2" d="M298.228 150.243H283.444V166.194H298.228V150.243Z" fill="#0095FA"/>
<path d="M318.431 150.243H303.647V166.194H318.431V150.243Z" fill="#0095FA"/>
<path d="M338.64 150.243H323.856V166.194H338.64V150.243Z" fill="#0095FA"/>
<path d="M358.849 150.243H344.065V166.194H358.849V150.243Z" fill="#0095FA"/>
<path opacity="0.2" d="M379.052 150.243H364.267V166.194H379.052V150.243Z" fill="#0095FA"/>
<path d="M399.26 150.243H384.476V166.194H399.26V150.243Z" fill="#0095FA"/>
<path opacity="0.2" d="M419.469 150.243H404.685V166.194H419.469V150.243Z" fill="#0095FA"/>
<path opacity="0.2" d="M439.672 150.243H424.888V166.194H439.672V150.243Z" fill="#0095FA"/>
<path opacity="0.2" d="M459.881 150.243H445.097V166.194H459.881V150.243Z" fill="#0095FA"/>
<path opacity="0.2" d="M480.084 150.243H465.3V166.194H480.084V150.243Z" fill="#0095FA"/>
<path opacity="0.2" d="M500.293 150.243H485.508V166.194H500.293V150.243Z" fill="#0095FA"/>
<path opacity="0.7" d="M520.501 150.243H505.717V166.194H520.501V150.243Z" fill="#0095FA"/>
<path opacity="0.2" d="M540.704 150.243H525.92V166.194H540.704V150.243Z" fill="#0095FA"/>
<path opacity="0.2" d="M560.913 150.243H546.129V166.194H560.913V150.243Z" fill="#0095FA"/>
<path d="M581.116 150.243H566.332V166.194H581.116V150.243Z" fill="#0095FA"/>
<path opacity="0.2" d="M75.9552 170.446H61.171V186.397H75.9552V170.446Z" fill="#0095FA"/>
<path opacity="0.2" d="M96.164 170.446H81.3798V186.397H96.164V170.446Z" fill="#0095FA"/>
<path opacity="0.2" d="M116.367 170.446H101.583V186.397H116.367V170.446Z" fill="#0095FA"/>
<path opacity="0.4" d="M136.576 170.446H121.791V186.397H136.576V170.446Z" fill="#0095FA"/>
<path opacity="0.2" d="M156.784 170.446H142V186.397H156.784V170.446Z" fill="#0095FA"/>
<path opacity="0.2" d="M176.987 170.446H162.203V186.397H176.987V170.446Z" fill="#0095FA"/>
<path opacity="0.7" d="M197.196 170.446H182.412V186.397H197.196V170.446Z" fill="#0095FA"/>
<path opacity="0.2" d="M217.399 170.446H202.615V186.397H217.399V170.446Z" fill="#0095FA"/>
<path opacity="0.2" d="M237.608 170.446H222.824V186.397H237.608V170.446Z" fill="#0095FA"/>
<path opacity="0.2" d="M257.817 170.446H243.032V186.397H257.817V170.446Z" fill="#0095FA"/>
<path d="M278.02 170.446H263.235V186.397H278.02V170.446Z" fill="#0095FA"/>
<path opacity="0.2" d="M298.228 170.446H283.444V186.397H298.228V170.446Z" fill="#0095FA"/>
<path d="M318.431 170.446H303.647V186.397H318.431V170.446Z" fill="#0095FA"/>
<path d="M338.64 170.446H323.856V186.397H338.64V170.446Z" fill="#0095FA"/>
<path opacity="0.2" d="M358.849 170.446H344.065V186.397H358.849V170.446Z" fill="#0095FA"/>
<path opacity="0.2" d="M379.052 170.446H364.267V186.397H379.052V170.446Z" fill="#0095FA"/>
<path opacity="0.2" d="M399.26 170.446H384.476V186.397H399.26V170.446Z" fill="#0095FA"/>
<path opacity="0.2" d="M419.469 170.446H404.685V186.397H419.469V170.446Z" fill="#0095FA"/>
<path opacity="0.2" d="M439.672 170.446H424.888V186.397H439.672V170.446Z" fill="#0095FA"/>
<path opacity="0.2" d="M459.881 170.446H445.097V186.397H459.881V170.446Z" fill="#0095FA"/>
<path opacity="0.2" d="M480.084 170.446H465.3V186.397H480.084V170.446Z" fill="#0095FA"/>
<path opacity="0.2" d="M500.293 170.446H485.508V186.397H500.293V170.446Z" fill="#0095FA"/>
<path opacity="0.2" d="M520.501 170.446H505.717V186.397H520.501V170.446Z" fill="#0095FA"/>
<path opacity="0.2" d="M540.704 170.446H525.92V186.397H540.704V170.446Z" fill="#0095FA"/>
<path opacity="0.4" d="M560.913 170.446H546.129V186.397H560.913V170.446Z" fill="#0095FA"/>
<path d="M581.116 170.446H566.332V186.397H581.116V170.446Z" fill="#0095FA"/>
<path opacity="0.7" d="M75.9552 190.655H61.171V206.606H75.9552V190.655Z" fill="#0095FA"/>
<path opacity="0.7" d="M96.164 190.655H81.3798V206.606H96.164V190.655Z" fill="#0095FA"/>
<path opacity="0.7" d="M116.367 190.655H101.583V206.606H116.367V190.655Z" fill="#0095FA"/>
<path opacity="0.7" d="M136.576 190.655H121.791V206.606H136.576V190.655Z" fill="#0095FA"/>
<path opacity="0.7" d="M156.784 190.655H142V206.606H156.784V190.655Z" fill="#0095FA"/>
<path opacity="0.2" d="M176.987 190.655H162.203V206.606H176.987V190.655Z" fill="#0095FA"/>
<path opacity="0.2" d="M197.196 190.655H182.412V206.606H197.196V190.655Z" fill="#0095FA"/>
<path opacity="0.2" d="M217.399 190.655H202.615V206.606H217.399V190.655Z" fill="#0095FA"/>
<path opacity="0.2" d="M237.608 190.655H222.824V206.606H237.608V190.655Z" fill="#0095FA"/>
<path opacity="0.2" d="M257.817 190.655H243.032V206.606H257.817V190.655Z" fill="#0095FA"/>
<path opacity="0.2" d="M278.02 190.655H263.235V206.606H278.02V190.655Z" fill="#0095FA"/>
<path d="M298.228 190.655H283.444V206.606H298.228V190.655Z" fill="#0095FA"/>
<path opacity="0.2" d="M318.431 190.655H303.647V206.606H318.431V190.655Z" fill="#0095FA"/>
<path opacity="0.2" d="M338.64 190.655H323.856V206.606H338.64V190.655Z" fill="#0095FA"/>
<path opacity="0.2" d="M358.849 190.655H344.065V206.606H358.849V190.655Z" fill="#0095FA"/>
<path d="M379.052 190.655H364.267V206.606H379.052V190.655Z" fill="#0095FA"/>
<path opacity="0.2" d="M399.26 190.655H384.476V206.606H399.26V190.655Z" fill="#0095FA"/>
<path opacity="0.2" d="M419.469 190.655H404.685V206.606H419.469V190.655Z" fill="#0095FA"/>
<path opacity="0.2" d="M439.672 190.655H424.888V206.606H439.672V190.655Z" fill="#0095FA"/>
<path opacity="0.2" d="M459.881 190.655H445.097V206.606H459.881V190.655Z" fill="#0095FA"/>
<path opacity="0.2" d="M480.084 190.655H465.3V206.606H480.084V190.655Z" fill="#0095FA"/>
<path opacity="0.2" d="M500.293 190.655H485.508V206.606H500.293V190.655Z" fill="#0095FA"/>
<path opacity="0.2" d="M520.501 190.655H505.717V206.606H520.501V190.655Z" fill="#0095FA"/>
<path opacity="0.2" d="M540.704 190.655H525.92V206.606H540.704V190.655Z" fill="#0095FA"/>
<path opacity="0.2" d="M560.913 190.655H546.129V206.606H560.913V190.655Z" fill="#0095FA"/>
<path d="M581.116 190.655H566.332V206.606H581.116V190.655Z" fill="#0095FA"/>
<path d="M425.688 249.338C436.849 249.338 445.896 239.576 445.896 227.534C445.896 215.493 436.849 205.731 425.688 205.731C414.527 205.731 405.479 215.493 405.479 227.534C405.479 239.576 414.527 249.338 425.688 249.338Z" fill="#767D9F"/>
<path d="M424.639 199.797C426.656 209.293 428.367 218.86 429.774 228.497C430.197 231.361 430.573 234.381 429.611 237.089C428.806 239.346 427.166 241.109 425.879 243.085C424.592 245.061 423.619 247.594 424.401 249.857C425.184 252.121 427.467 253.359 429.646 253.996C435.882 255.81 442.529 254.49 448.736 252.527C451.547 251.746 454.241 250.542 456.74 248.95C459.371 247.15 461.527 244.648 463.509 242.072C472.556 230.236 478.479 216.029 484.054 201.91C480.471 202.262 476.863 201.689 473.526 200.239C470.19 198.788 467.221 196.502 464.865 193.569C462.582 190.674 460.907 186.641 462.193 183.102C458.42 185.334 453.941 185.484 449.878 187.01C447.358 188.048 444.933 189.335 442.634 190.855C439.86 192.585 437.101 194.349 434.358 196.145C431.222 198.184 428.284 199.997 424.639 199.797Z" fill="#AE6E79"/>
<path d="M466.905 216.167C463.364 223.601 458.757 230.748 452.179 235.175C445.601 239.602 436.745 240.803 430.156 236.426C426.911 234.287 424.453 231.036 421.619 228.297C418.785 225.559 415.244 223.214 411.437 223.57C407.241 223.964 403.955 227.497 401.144 230.88C396.879 236.02 392.758 241.378 389.739 247.462C383.943 259.155 382.57 272.824 382.825 286.08C383.08 299.336 384.859 312.523 384.899 325.779C384.957 342.086 382.396 358.262 379.805 374.326C403.624 371.162 427.473 378.078 451.344 380.698C466.621 382.392 482.014 382.355 497.372 382.311C500.072 382.311 502.947 382.236 505.196 380.623C506.57 379.541 507.681 378.116 508.435 376.471C510.556 372.25 511.408 367.435 511.999 362.677C513.5 350.659 513.547 338.491 513.587 326.36C513.692 296.972 513.79 267.478 510.33 238.321C509.478 231.149 508.389 223.939 505.839 217.23C503.289 210.52 499.128 204.349 493.309 200.754C489.571 198.44 480.907 194.413 476.502 196.745C471.559 199.347 469.275 211.189 466.905 216.167Z" fill="#767D9F"/>
<path d="M468.667 299.154C467.768 281.021 464.112 261.669 471.895 245.574C473.807 241.622 466.946 236.689 469.067 232.862C471.655 228.196 473.618 223.158 474.897 217.899C475.337 216.092 475.691 214.178 475.274 212.365C474.503 209.057 471.472 207.088 468.899 205.074C466.059 202.848 464.598 196.064 463.683 192.393C462.767 188.723 470.968 193.144 474.265 191.837C478.844 190.03 484.662 191.168 489.229 193C491.779 194.013 494.549 194.101 497.267 194.176C502.547 194.326 507.844 194.469 513.083 193.769C515.436 193.45 517.795 192.969 520.159 193.113C526.192 193.481 531.437 197.933 535.007 203.198C538.577 208.463 540.849 214.597 543.776 220.3C546.216 225.052 549.125 229.542 551.206 234.488C553.049 238.865 554.213 243.567 555.367 248.244L558.34 260.243C558.86 261.96 559.107 263.759 559.07 265.564C558.919 267.484 558.131 269.272 557.331 270.979C554.307 277.306 550.681 283.276 546.511 288.793C540.258 297.066 532.666 304.526 528.951 314.43C527.502 318.288 526.697 322.39 525.961 326.479C522.993 342.835 520.884 359.358 519.644 375.97C512.872 372.589 505.773 370.029 498.479 368.336C494.842 367.496 491.166 366.87 487.467 366.46C484.228 366.097 480.049 366.785 476.966 365.835C471.808 364.253 471.24 354.842 470.458 349.915C469.206 342.068 468.957 334.083 468.91 326.154C468.852 317.138 469.113 308.14 468.667 299.154Z" fill="#4C4981"/>
<path d="M355.395 265.245C357.834 280.252 360.524 295.303 365.826 309.403C365.693 309.54 365.56 309.665 365.427 309.791C364.957 310.222 364.47 310.628 363.96 311.041C362.772 311.941 361.468 312.704 360.483 313.88C360.11 314.33 359.815 314.849 359.614 315.412C359.432 315.852 359.338 316.328 359.338 316.809C359.338 317.291 359.432 317.767 359.614 318.207C356.849 319.526 353.639 319.12 350.538 318.995C347.866 318.888 345.276 318.995 343.131 320.577C340.153 322.79 339.254 327.042 338.773 330.906C338.596 332.315 338.443 333.726 338.315 335.139C338.192 336.453 338.091 337.77 338.014 339.091C337.751 343.463 337.715 347.846 337.904 352.222C337.935 353.023 337.975 353.823 338.026 354.623C328.556 354.379 319.926 349.052 311.761 343.875C309.895 342.693 307.97 341.449 306.759 339.498C305.643 337.582 305.17 335.31 305.42 333.064C305.42 332.745 305.473 332.438 305.513 332.113C305.773 330.258 306.218 328.438 306.84 326.686C309.395 319.222 313.161 312.309 317.962 306.27C320.037 303.656 322.372 301.099 323.34 297.816C323.763 296.384 323.919 294.865 324.348 293.439C326.272 287.262 333.215 284.341 335.592 278.345C336.171 276.913 336.438 275.344 337.156 273.968C337.803 272.825 338.638 271.818 339.619 270.998C340.042 270.616 340.483 270.248 340.918 269.879C344.99 266.435 348.913 262.798 352.688 258.967C353.391 258.255 354.087 257.533 354.774 256.804C354.683 259.634 354.891 262.466 355.395 265.245Z" fill="#4C4981"/>
<path d="M413.795 220.863C412.961 221.813 412.057 222.707 411.17 223.595L410.932 223.826L409.994 224.764C408.29 226.351 406.815 228.204 405.618 230.261L405.52 230.436C402.564 236.145 403.659 243.173 404.482 249.657C405.503 257.737 405.962 265.889 405.856 274.043C405.705 285.298 404.476 296.478 404.453 307.721C404.453 310.272 404.505 312.817 404.61 315.368C404.778 319.514 405.067 323.653 405.415 327.792C405.792 332.332 406.244 336.865 406.667 341.398C407.003 344.906 407.322 348.408 407.588 351.91C407.722 353.723 407.849 355.53 407.954 357.343C408.075 359.469 408.174 361.601 408.232 363.727C408.272 365.078 408.296 366.422 408.296 367.773C408.296 368.542 408.296 369.305 408.296 370.068C408.296 371.531 408.259 372.99 408.185 374.445C408.108 376.316 407.99 378.192 407.832 380.072C407.652 382.117 407.333 384.349 406.001 385.787C405.919 385.875 405.832 385.956 405.746 386.037L403.868 385.787C390.924 384.115 377.856 383.864 364.864 385.037C365.148 382.924 365.409 380.816 365.664 378.697C365.78 377.696 365.896 376.689 366.006 375.683C366.134 374.532 366.255 373.382 366.371 372.231C366.505 370.981 366.626 369.73 366.742 368.48C367.044 365.257 367.308 362.033 367.536 358.806C367.872 354.1 368.127 349.385 368.301 344.662C368.386 342.407 368.452 340.15 368.498 337.891C368.564 335.089 368.595 332.286 368.591 329.481C368.591 326.754 368.57 324.024 368.527 321.289C368.527 320.389 368.492 319.489 368.423 318.594C368.373 317.789 368.27 316.989 368.116 316.2C367.685 314.379 367.103 312.605 366.377 310.897C366.25 310.572 366.128 310.272 366.006 309.928C365.937 309.759 365.873 309.584 365.809 309.415C369.147 306.208 371.523 301.912 373.807 297.685C377.51 290.876 381.3 283.766 381.92 275.9C382.541 268.034 378.918 259.199 371.952 256.798C370.057 256.172 368.052 255.997 366.099 255.628C364.256 255.278 360.414 254.484 358.281 253.058C357.122 254.342 355.963 255.603 354.804 256.841C354.874 254.952 355.302 253.099 356.061 251.395L356.884 251.439C356.817 251.239 356.786 251.027 356.791 250.814C356.791 250.145 357.22 249.388 358.136 248.55C360.866 246.049 365.16 245.493 366.881 242.11C367.6 240.703 367.722 239.027 368.301 237.551C369.964 233.343 374.74 231.793 377.614 228.429C380.489 225.065 381.208 220.3 383.532 216.548C385.268 213.808 387.675 211.644 390.486 210.295C390.718 210.177 390.956 210.058 391.193 209.951C396.003 207.732 401.718 207.225 406.702 207.238C408.637 207.238 413.656 207.3 416.114 208.357C416.512 208.511 416.877 208.751 417.186 209.064C419.805 212.14 415.731 218.637 413.795 220.863Z" fill="#4C4981"/>
<path d="M356.258 250.957C360.735 249.503 365.435 249.024 370.085 249.547C374.736 250.069 379.243 251.584 383.346 254.003C387.519 256.504 391.263 259.993 393.558 264.495C397.006 271.248 396.855 279.389 396.612 287.099C396.49 290.957 396.334 294.952 394.757 298.416C392.932 302.425 389.489 305.176 385.977 307.427C383.777 308.941 381.367 310.066 378.837 310.76C374.943 311.672 370.898 310.897 366.974 310.134C362.709 309.284 358.13 308.258 355.169 304.832C353.43 302.843 352.48 300.261 351.541 297.735C350.192 294.087 348.84 290.444 347.484 286.805C345.137 280.483 344.343 275.225 347.443 269.066C348.852 266.258 350.573 263.632 351.964 260.806C352.659 259.368 355.151 251.326 356.258 250.957Z" fill="#4C4981"/>
<path d="M599.829 359.05V377.746C587.941 383.075 575.189 385.795 562.316 385.75H406.018C405.937 385.837 405.85 385.919 405.763 386L403.885 385.75H125.86C102.533 385.75 80.9161 378.959 63.1878 367.392V338.847L196.901 322.196H197.005L274.873 329.312L295.023 331.188L305.49 332.144L327.153 334.126L338.298 335.146L354.525 336.634L356.809 336.84L368.504 337.909L384.372 339.316L406.684 341.355L443.88 344.763L470.046 347.157L513.014 351.09L521.185 351.834L522.066 351.916L522.831 351.985L533.622 352.973L545.468 354.06L546.842 354.186L599.829 359.05Z" fill="#504F60"/>
<path d="M442.773 358.362L275.203 327.505L268.706 362.952L345.519 372.875L369.17 376.07L434.23 362.245L442.773 358.362Z" fill="#9C9CA1"/>
<path d="M356.032 374.295L439.985 357.268C440.405 357.181 440.838 357.196 441.252 357.311C441.666 357.426 442.051 357.638 442.381 357.933C442.71 358.228 442.974 358.597 443.155 359.015C443.336 359.433 443.429 359.889 443.428 360.351C443.429 361.083 443.193 361.792 442.76 362.355C442.327 362.919 441.724 363.3 441.057 363.433L359.069 379.997L356.032 374.295Z" fill="#9C9CA1"/>
<path d="M392.451 320.752C395.065 320.489 397.713 320.045 400.066 318.795C402.964 317.238 405.218 314.555 407.901 312.579C413.801 308.202 421.695 307.614 428.458 310.128C435.221 312.642 440.866 318.025 444.819 324.453C447.444 328.737 449.414 334.202 447.56 338.929C446.924 340.374 446.121 341.727 445.172 342.955L440.339 349.771C439.42 351.204 438.316 352.486 437.058 353.579C435.25 354.998 433.002 355.58 430.788 355.93C424.905 356.856 418.919 356.33 412.99 356.755C402.807 357.487 392.862 361.026 382.656 360.907C376.791 360.839 371.002 359.563 365.27 358.287L339.903 352.66C335.487 351.684 330.497 350.259 328.417 345.938C327.484 343.993 327.31 341.742 327.2 339.554C326.898 333.526 327.2 326.823 331.071 322.477C334.711 318.401 340.466 317.112 344.812 314.099C350.132 310.403 351.888 311.597 357.498 314.374C368.443 319.721 380.485 321.919 392.451 320.752Z" fill="#AE6E79"/>
<path opacity="0.05" d="M392.451 320.752C395.065 320.489 397.713 320.045 400.066 318.795C402.964 317.238 405.218 314.555 407.901 312.579C413.801 308.202 421.695 307.614 428.458 310.128C435.221 312.642 440.866 318.025 444.819 324.453C447.444 328.737 449.414 334.202 447.56 338.929C446.924 340.374 446.121 341.727 445.172 342.955L440.339 349.771C439.42 351.204 438.316 352.486 437.058 353.579C435.25 354.998 433.002 355.58 430.788 355.93C424.905 356.856 418.919 356.33 412.99 356.755C402.807 357.487 392.862 361.026 382.656 360.907C376.791 360.839 371.002 359.563 365.27 358.287L339.903 352.66C335.487 351.684 330.497 350.259 328.417 345.938C327.484 343.993 327.31 341.742 327.2 339.554C326.898 333.526 327.2 326.823 331.071 322.477C334.711 318.401 340.466 317.112 344.812 314.099C350.132 310.403 351.888 311.597 357.498 314.374C368.443 319.721 380.485 321.919 392.451 320.752Z" fill="black"/>
<path d="M494.318 312.179C487.201 315.149 480.043 318.132 472.59 319.901C460.095 322.871 447.021 322.402 434.624 325.798C428.075 327.599 421.567 330.5 414.839 329.912C411.831 329.649 408.927 328.661 406.001 327.911C389.559 323.534 370.869 324.954 357.516 336.209C352.949 340.054 349.211 344.85 345.821 349.965C345.095 351.07 344.605 352.334 344.385 353.667C344.165 355 344.22 356.369 344.547 357.676C344.875 358.983 345.465 360.196 346.278 361.228C347.09 362.26 348.103 363.086 349.246 363.646C354.438 366.223 360.001 367.823 365.693 368.379C373.303 369.105 380.947 367.942 388.516 366.779C399.747 365.059 410.985 363.333 422.187 361.401C426.209 360.707 430.231 359.988 434.277 359.438C463.387 355.467 493.025 360.295 522.211 356.981C525.161 356.643 528.163 356.205 530.846 354.848C537.639 351.409 541 342.343 539.597 334.377C538.195 326.41 532.782 319.789 526.268 315.724C520.809 312.304 514.92 310.922 508.841 309.472C503.196 308.052 499.754 309.928 494.318 312.179Z" fill="#AE6E79"/>
<path opacity="0.1" d="M556.752 264.557C559.963 269.097 560.646 275.187 560.299 280.871C559.951 286.555 558.699 292.176 558.514 297.885C558.259 305.714 560.009 313.517 559.713 321.321C559.505 326.779 558.305 332.132 556.885 337.372C555.21 343.556 552.788 350.202 547.497 353.173C540.472 357.118 525.74 354.898 518.351 357.987C519.023 353.466 525.468 346.92 526.14 342.399C526.604 339.273 527.073 336.059 526.575 332.926C525.937 328.93 523.764 325.385 521.185 322.434C517.082 317.738 511.727 314.205 505.845 313.054C499.962 311.904 485.561 312.848 480.855 316.856C480.275 312.717 491.055 308.727 494.845 307.833C496.734 307.377 498.902 307.633 500.414 306.339C503.312 303.888 501.208 299.004 501.347 295.084C501.457 291.957 503.15 289.094 503.492 285.967C504.071 280.965 501.046 275.869 502.234 270.96C502.675 269.147 503.654 267.552 504.332 265.827C506.395 260.543 505.491 254.515 504.39 248.9C503.706 245.374 503.04 241.397 504.859 238.389C506.546 235.582 511.333 245.58 514.399 245.117C524.523 243.585 533.686 235.488 541.863 242.116C546.03 245.492 546.575 248.994 548.238 253.815C549.855 258.405 554.045 260.756 556.752 264.557Z" fill="black"/>
<path d="M558.491 264.557C561.701 269.097 562.385 275.187 562.037 280.871C561.69 286.555 560.438 292.176 560.252 297.885C559.997 305.714 561.748 313.517 561.452 321.321C561.243 326.779 560.044 332.132 558.624 337.372C556.949 343.556 554.526 350.203 549.235 353.173C542.211 357.118 527.479 354.898 520.09 357.987C520.762 353.467 527.207 346.92 527.879 342.399C528.343 339.273 528.812 336.059 528.314 332.926C527.676 328.93 525.503 325.385 522.924 322.434C518.821 317.738 513.466 314.205 507.583 313.054C501.701 311.904 487.299 312.848 482.593 316.856C482.014 312.717 492.793 308.728 496.583 307.833C498.473 307.377 500.64 307.633 502.153 306.339C505.051 303.888 502.947 299.004 503.086 295.084C503.196 291.957 504.888 289.094 505.23 285.967C505.81 280.965 502.785 275.869 503.973 270.96C504.413 269.147 505.393 267.553 506.071 265.827C508.134 260.543 507.23 254.515 506.129 248.9C505.445 245.374 504.778 241.397 506.598 238.389C508.285 235.582 511.582 234.519 514.648 234.05C524.913 232.552 535.313 235.447 543.625 242.116C547.792 245.493 548.337 248.994 550 253.815C551.594 258.405 555.784 260.756 558.491 264.557Z" fill="#4C4981"/>
<path d="M175.023 234.931L206.533 360.576C206.919 362.115 207.731 363.491 208.861 364.52C209.991 365.549 211.384 366.182 212.855 366.335L354.682 381.035C355.838 381.155 357.003 380.975 358.081 380.509C359.159 380.043 360.118 379.306 360.878 378.358C361.637 377.41 362.175 376.28 362.446 375.061C362.717 373.843 362.714 372.572 362.436 371.356L327.93 219.8C327.519 217.998 326.53 216.412 325.138 215.323C323.746 214.235 322.041 213.714 320.326 213.853L181.473 225.058C180.407 225.148 179.372 225.49 178.443 226.06C177.513 226.631 176.712 227.415 176.096 228.358C175.48 229.301 175.064 230.379 174.879 231.516C174.693 232.652 174.742 233.818 175.023 234.931Z" fill="#9C9CA1"/>
<path d="M456.166 259.449C464.776 259.449 471.756 251.82 471.756 242.41C471.756 233 464.776 225.371 456.166 225.371C447.556 225.371 440.576 233 440.576 242.41C440.576 251.82 447.556 259.449 456.166 259.449Z" fill="white"/>
<path d="M468.968 211.327C468.968 211.327 472.254 221.869 462.558 226.303L461.318 228.641L467.392 235.107C467.392 235.107 474.88 220.369 474.068 215.135C474.068 215.135 472.909 209.82 468.968 211.327Z" fill="white"/>
<path d="M457.957 259.449C466.26 259.449 472.99 252.187 472.99 243.229C472.99 234.271 466.26 227.009 457.957 227.009C449.654 227.009 442.923 234.271 442.923 243.229C442.923 252.187 449.654 259.449 457.957 259.449Z" fill="#0095FA"/>
<path d="M474.144 217.53L471.756 213.278L468.279 212.746C469.02 198.746 465.653 194.576 465.653 194.576L464.871 194.494L461.463 194.138L455.053 186.96V184.921C464.059 186.078 469.038 190.693 471.727 196.101C476.479 205.593 474.144 217.53 474.144 217.53Z" fill="#0095FA"/>
<path opacity="0.1" d="M464.9 191.918V194.494L461.492 194.138L455.082 186.96C455.082 186.96 464.998 189.355 464.9 191.918Z" fill="black" stroke="#4C4981" stroke-miterlimit="10"/>
<path opacity="0.1" d="M474.144 217.53L471.756 213.278V196.126C476.479 205.593 474.144 217.53 474.144 217.53Z" fill="black" stroke="#4C4981" stroke-miterlimit="10"/>
<path d="M430.177 249.897C434.177 247.405 434.005 239.004 429.793 231.133C425.581 223.261 418.923 218.9 414.923 221.391C410.924 223.883 411.096 232.284 415.308 240.155C419.52 248.027 426.177 252.388 430.177 249.897Z" fill="white"/>
<path d="M424.807 234.269C429.02 242.141 434.19 247.4 430.191 249.901C426.192 252.402 414.543 251.151 410.33 243.273C406.116 235.394 409.941 224.514 413.94 222.013C417.939 219.512 420.588 226.378 424.807 234.269Z" fill="#0095FA"/>
<path opacity="0.1" d="M462.321 177.556C462.321 202.711 446.366 226.953 423.051 226.953C411.853 226.953 401.115 222.154 393.197 213.611C385.279 205.068 380.831 193.482 380.831 181.401C380.831 169.32 385.279 157.734 393.197 149.191C401.115 140.648 411.853 135.849 423.051 135.849C446.366 135.874 462.321 152.394 462.321 177.556Z" fill="black"/>
<path d="M423.051 225.727C446.368 225.727 465.271 205.333 465.271 180.175C465.271 155.018 446.368 134.624 423.051 134.624C399.733 134.624 380.831 155.018 380.831 180.175C380.831 205.333 399.733 225.727 423.051 225.727Z" fill="#AE6E79"/>
<path d="M419.342 159.991C424.366 161.986 427.339 167.588 431.848 170.709C438.223 175.086 446.522 173.954 453.801 171.79C457.858 170.596 462.101 169.139 466.094 170.465C466.681 170.745 467.329 170.845 467.966 170.752C468.835 170.484 469.264 169.446 469.548 168.52C474.485 152.638 472.266 134.649 464.813 119.954C462.889 116.165 460.582 112.501 457.406 109.869C454.903 107.799 451.959 106.442 448.991 105.285C443.569 103.184 437.96 101.69 432.254 100.827C431.246 100.629 430.217 100.594 429.2 100.721C427.803 100.965 426.551 101.777 425.305 102.503C419.969 105.589 414.051 107.323 408 107.574C399.886 107.905 390.614 105.842 384.36 111.457C376.826 118.191 378.704 131.328 373.818 140.47C370.585 146.516 364.349 150.906 363.323 157.79C363.056 159.894 363.18 162.035 363.688 164.087C366.076 174.679 375.58 182.883 385.711 183.077C387.266 183.205 388.824 182.86 390.208 182.083C391.115 181.415 391.915 180.594 392.578 179.65C399.214 171.171 406.806 155.014 419.342 159.991Z" fill="#444053"/>
<path opacity="0.1" d="M469.548 163.912C469.264 164.837 468.835 165.875 467.966 166.144C467.329 166.237 466.681 166.137 466.094 165.856C462.101 164.531 457.835 165.988 453.807 167.182C446.522 169.346 438.206 170.502 431.854 166.1C427.339 162.974 424.372 157.346 419.342 155.383C406.806 150.381 399.214 166.563 392.561 175.042C391.898 175.985 391.097 176.807 390.191 177.474C388.807 178.252 387.249 178.596 385.693 178.468C375.598 178.275 366.087 170.071 363.671 159.479C363.537 158.853 363.421 158.228 363.334 157.603C363.334 157.659 363.334 157.709 363.305 157.765C363.038 159.869 363.162 162.01 363.671 164.062C366.058 174.654 375.569 182.858 385.693 183.052C387.249 183.18 388.807 182.835 390.191 182.058C391.097 181.39 391.898 180.569 392.561 179.625C399.214 171.146 406.806 154.989 419.342 159.966C424.372 161.961 427.339 167.563 431.854 170.684C438.229 175.061 446.522 173.929 453.807 171.765C457.864 170.571 462.101 169.114 466.094 170.44C466.681 170.72 467.329 170.82 467.966 170.727C468.835 170.459 469.264 169.421 469.548 168.495C471.539 161.997 472.419 155.162 472.144 148.323C471.973 153.627 471.099 158.876 469.548 163.912Z" fill="black"/>
</g>
<defs>
<clipPath id="clip0">
<rect width="663" height="386" fill="white"/>
</clipPath>
</defs>
</svg>
