<svg width="30" height="30" viewBox="0 0 30 30" fill="none" xmlns="http://www.w3.org/2000/svg">
<path d="M15 2.5C21.8925 2.5 27.5 8.1075 27.5 15C27.5 21.8925 21.8925 27.5 15 27.5C8.1075 27.5 2.5 21.8925 2.5 15C2.5 8.1075 8.1075 2.5 15 2.5ZM15 0C6.71625 0 0 6.71625 0 15C0 23.2838 6.71625 30 15 30C23.2838 30 30 23.2838 30 15C30 6.71625 23.2838 0 15 0ZM21.8838 17.4263C19.9937 18.92 17.9163 19.84 15.0013 19.84C12.0838 19.84 10.0063 18.92 8.11625 17.4263L7.5 18.0425C8.90875 20.1925 11.5 22.5 15.0013 22.5C18.5013 22.5 21.0912 20.1925 22.5 18.0425L21.8838 17.4263ZM10.625 10C9.59 10 8.75 10.8387 8.75 11.875C8.75 12.9113 9.59 13.75 10.625 13.75C11.66 13.75 12.5 12.9113 12.5 11.875C12.5 10.8387 11.66 10 10.625 10ZM19.375 10C18.34 10 17.5 10.8387 17.5 11.875C17.5 12.9113 18.34 13.75 19.375 13.75C20.41 13.75 21.25 12.9113 21.25 11.875C21.25 10.8387 20.41 10 19.375 10Z" fill="#F7F9FF"/>
</svg>
